<?xml version="1.0" encoding="UTF-8"?> <svg xmlns="http://www.w3.org/2000/svg" width="1310" height="248" viewBox="0 0 1310 248" fill="none"> <path d="M519.16 246.319H515.449V0.32373H519.16V246.319Z" fill="white"></path> <path d="M1236.37 37.6187L1219.55 78.6375H1223.49L1255.47 37.6187H1236.37Z" fill="white"></path> <path d="M641.391 137.022C631.909 137.099 622.542 134.932 614.05 130.697L607.059 137.022H603.83L601.669 96.9045L605.432 96.5517C616.745 122.569 630.012 130.88 642.393 130.88C655.322 130.88 662.86 122.386 662.86 111.004C662.86 100.158 658.733 94.9183 641.86 87.8749C636.131 85.5228 629.478 83.1837 623.919 80.4656C611.355 74.141 604.716 64.1966 604.716 51.0115C604.716 29.5025 623.203 16.5003 641.326 16.5003C648.747 16.4479 656.03 18.5145 662.326 22.4591L669.317 16.3174H672.364L675.423 51.7303L671.83 52.2791C662.027 32.4034 651.507 22.6943 639.79 22.6943C629.556 22.6943 622.734 29.5547 622.734 40.2178C622.734 48.7117 626.341 55.2193 639.06 60.8252C645.349 63.7131 652.718 66.2482 659.345 69.489C673.874 76.5454 680.696 85.758 680.696 99.126C680.696 122.974 660.79 137.022 641.404 137.022" fill="white"></path> <path d="M735.624 137.204C708.283 137.204 694.899 117.511 694.899 93.4671C694.899 71.2524 710.314 49.9263 737.954 49.9263C765.295 49.9263 778.314 69.436 778.314 93.2972C778.314 115.695 763.238 137.204 735.611 137.204M736.327 54.9834C723.763 54.9834 716.056 69.0832 716.056 93.833C716.056 118.23 724.31 132.134 737.043 132.134C750.14 132.134 757.327 118.047 757.327 93.2972C757.327 68.9003 749.607 54.9834 736.327 54.9834Z" fill="white"></path> <path d="M817.242 136.474C803.064 136.474 798.585 129.43 798.585 116.428V62.3943H785.306V59.8722L801.814 46.6741L814.912 29.5034H817.646V53.0249H844.986V62.4204H817.646V109.202C817.646 116.428 818.726 120.754 822.32 123.289C825.379 125.458 829.493 126.19 835.417 126.19C838.294 126.19 841.927 126.007 845.299 125.811L845.468 128.346C836.899 133.372 827.214 136.166 817.294 136.474" fill="white"></path> <path d="M901.034 63.6616C894.536 63.5834 888.123 65.1377 882.377 68.183V127.993L892.428 131.782V134.304H851.873V131.782L863.212 127.993V18.8533L850.792 10.7775V8.9089L881.661 0.415039L882.377 0.963873V64.1974L883.106 64.5633C893.691 54.4491 903.377 49.9277 913.05 49.9277C929.194 49.9277 936.03 62.2242 936.03 75.0434V127.993L947.33 131.782V134.304H906.788V131.782L916.839 127.993V82.4527C916.839 70.6919 912.165 63.6616 901.034 63.6616Z" fill="white"></path> <path d="M973.876 87.3288C973.876 110.288 980.386 125.225 1000.61 125.225C1009.58 125.225 1016.94 123.421 1027.7 119.449L1028.77 121.618C1017.83 131.196 1005.63 137.155 994.147 137.155C969.567 137.155 953.397 120.167 953.397 95.0517C953.397 69.2173 972.796 49.8774 994.668 49.8774C1018.38 49.8774 1029.82 65.9504 1029.66 87.2766L973.876 87.3288ZM1009.58 81.1871C1008.86 64.1994 1004.02 55.0522 993.418 55.0522C982.821 55.0522 974.944 66.068 974.046 82.8859L1009.58 81.2525V81.1871Z" fill="white"></path> <path d="M1077.44 137.206C1067.18 136.93 1056.99 135.35 1047.12 132.501V18.8142L1034.56 10.6732V8.86986L1065.6 0.32373L1066.31 0.872565V61.4534L1067.04 61.8193C1073.32 55.4946 1081.94 49.8887 1093.08 49.8887C1110.14 49.8887 1125.63 65.5697 1125.63 91.4433C1125.63 117.317 1106.24 137.179 1077.54 137.179M1080.58 62.5511C1075.68 62.5243 1070.82 63.5072 1066.31 65.439V122.714C1068.84 125.348 1071.87 127.441 1075.23 128.865C1078.59 130.289 1082.2 131.015 1085.84 130.999C1096.43 130.999 1105.21 121.433 1105.21 95.9516C1105.21 73.5408 1095.71 62.5249 1080.48 62.5249" fill="white"></path> <path d="M1174.7 139.91C1165.73 162.124 1157.3 171.886 1146.17 171.886C1136.66 171.886 1132.18 166.293 1132.18 160.504C1132.3 157.724 1133.48 155.098 1135.49 153.18C1137.5 151.262 1140.17 150.2 1142.94 150.22C1149.05 150.22 1152.63 153.461 1156.94 158.884C1160.88 154.216 1164.2 149.05 1166.81 143.516L1169.86 136.656L1138.1 59.5576L1127.15 55.2062V52.854H1170.97V55.2062L1159.49 59.5446L1178.79 112.442H1179.68L1197.27 60.7599L1186.86 55.1539V52.8018H1217.71V55.2062L1206 61.1649L1174.59 139.949L1174.7 139.91Z" fill="white"></path> <path d="M1277 137.204C1267.92 137.308 1258.9 135.649 1250.44 132.317L1250.26 108.469L1253.85 108.116C1263.54 125.273 1270.9 131.781 1280.41 131.781C1288.84 131.781 1294.04 126.358 1294.04 118.047C1294.04 108.652 1284.54 104.98 1274.31 100.876C1263.01 96.0022 1250.98 90.5792 1250.98 75.5908C1250.98 61.308 1263.54 49.9263 1281.85 49.9263C1288.84 49.9263 1298.77 51.3768 1303.55 53.1801L1304.1 74.6761L1300.68 75.5908C1291.9 60.9552 1286.16 55.3493 1277.89 55.3493C1270.36 55.3493 1265.69 60.4064 1265.69 66.914C1265.69 76.3095 1275.39 80.1121 1285.61 84.2676C1296.92 88.9588 1309.12 94.3818 1309.12 109.736C1309.12 126.541 1294.41 137.178 1277 137.178" fill="white"></path> <path d="M1288.77 246.281H1292.78V227.699L1306.82 204.177H1302.48L1290.76 224.236L1279.04 204.177H1274.71L1288.69 227.699V246.229L1288.77 246.281ZM1252.72 246.281H1256.71V207.967H1270.2V204.177H1239.23V207.915H1252.72V246.229V246.281ZM1217.11 246.281H1241.55V242.583H1221.12V204.177H1217.11V246.229V246.281ZM1182.7 229.737L1189.87 208.83H1190L1197.16 229.737H1182.7ZM1173.08 246.281H1176.98L1181.45 233.318H1198.37L1202.84 246.281H1207.01L1192.23 204.06H1187.88L1173.08 246.281ZM1141.83 246.281H1167.96V242.583H1145.83V225.87H1161.45V222.237H1145.83V207.967H1166.76V204.177H1141.83V246.229V246.281ZM1104.58 223.779V207.915H1114.29C1121.3 207.915 1125.13 209.966 1125.13 215.755C1125.13 221.832 1121.22 223.805 1114.35 223.805L1104.58 223.779ZM1100.68 246.242H1104.58V227.398H1115L1125.2 246.281H1129.71L1119.18 226.954C1125.2 225.817 1129.16 222.407 1129.16 215.585C1129.16 208.202 1123.96 204.23 1114.66 204.23H1100.66V246.281L1100.68 246.242ZM1052.32 246.242H1076.73V242.544H1056.33V204.177H1052.32V246.242ZM1016.85 229.737L1024.02 208.83H1024.14L1031.3 229.737H1016.85ZM1007.26 246.281H1011.17L1015.63 233.318H1032.56L1037.01 246.281H1041.19L1026.3 204.06H1022.05L1007.21 246.281H1007.26ZM965.223 246.281H968.999V210.528H969.116L992.863 246.281H996.418V204.177H992.512V238.832H992.395L969.481 204.177H965.197V246.229L965.223 246.281ZM934.823 243.38C926.921 243.38 921.231 236.624 921.231 225.203C921.231 213.782 926.921 207.065 934.823 207.065C942.726 207.065 948.337 213.769 948.337 225.19C948.337 236.611 942.635 243.38 934.823 243.38ZM934.823 247.013C945.043 247.013 952.425 238.388 952.425 225.203C952.425 212.018 945.043 203.38 934.823 203.38C924.603 203.38 917.091 212.018 917.091 225.19C917.091 238.362 924.486 247 934.693 247L934.823 247.013ZM901.194 246.229H905.204V204.177H901.194V246.229ZM874.114 246.229H878.02V207.967H891.508V204.177H860.613V207.915H874.101V246.229H874.114ZM833.754 229.685L840.915 208.777H841.084L848.258 229.685H833.754ZM824.159 246.281H828.065L832.517 233.318H849.442L853.895 246.281H858.087L843.297 204.06H838.949L824.029 246.281H824.159ZM782.172 246.281H785.96V210.528H786.064L809.838 246.281H813.392V204.177H809.603V238.832H809.499L786.481 204.177H782.185L782.172 246.281ZM743.752 223.779V207.915H753.464C760.455 207.915 764.296 209.966 764.296 215.755C764.296 221.832 760.39 223.805 753.516 223.805L743.752 223.779ZM739.846 246.242H743.752V227.398H754.167L764.374 246.281H768.905L758.346 226.954C764.374 225.817 768.332 222.407 768.332 215.585C768.332 208.202 763.124 204.23 753.829 204.23H739.69V246.281L739.846 246.242ZM702.871 246.242H728.844V242.544H706.712V225.87H722.335V222.237H706.712V207.967H727.647V204.177H702.715V246.229L702.871 246.242ZM676.35 246.242H680.152V207.967H693.692V204.177H662.719V207.915H676.259V246.229L676.35 246.242ZM622.633 246.242H626.421V210.528H626.539L650.286 246.281H653.84V204.177H650.065V238.832H649.947L626.773 204.177H622.477V246.229L622.633 246.242ZM604.184 246.242H608.194V204.177H604.132L604.184 246.242Z" fill="white"></path> <path d="M0.0302734 145.113L10.654 141.193C16.2133 158.612 28.8811 167.576 46.3661 167.576C65.0748 167.576 77.2089 158.952 77.2089 144.917C77.2089 131.85 70.9726 125.316 44.5173 116.848C17.7235 108.381 4.07928 101.167 4.07928 80.4816C4.07928 62.553 20.08 48.3486 42.8378 48.3486C66.2726 48.3486 79.7346 60.3576 85.6324 77.0971L75.5424 81.8275C69.2931 65.663 58.3308 59.1293 42.6686 59.1293C25.9778 59.1293 15.8748 68.0936 15.8748 79.593C15.8748 93.6274 24.1291 98.3709 50.4151 106.826C76.3626 115.15 89.1736 123.774 89.1736 144.068C89.1736 164.871 70.8033 178.239 45.8713 178.239C22.4496 178.265 5.92803 165.407 0.0302734 145.113Z" fill="white"></path> <path d="M113.106 50.7378H124.732V100.799C133.325 92.3446 144.613 85.1183 158.582 85.1183C176.106 85.1183 185.038 94.932 185.038 111.502V175.937H173.411V113.658C173.411 101.139 167.852 95.0496 155.718 95.0496C144.261 95.0496 134.666 100.969 124.719 110.613V175.885H113.093L113.106 50.7378Z" fill="white"></path> <path d="M205.62 155.096C205.62 137.494 220.618 124.649 265.769 117.71V113.15C265.769 100.801 259.363 94.8552 247.737 94.8552C233.754 94.8552 223.808 100.775 214.551 108.89L208.341 101.624C218.925 91.7974 231.229 85.0415 248.701 85.0415C268.581 85.0415 277.174 95.7046 277.174 113.463V153.881C277.174 164.701 277.851 171.3 279.7 175.86H267.735C266.383 171.773 265.701 167.492 265.717 163.185C255.445 172.489 243.975 177.389 230.669 177.389C214.85 177.416 205.62 168.961 205.62 155.096ZM265.769 153.79V125.995C227.687 132.424 217.077 141.898 217.077 153.567C217.077 162.871 223.313 167.772 233.247 167.772C245.719 167.772 256.681 162.545 265.795 153.737L265.769 153.79Z" fill="white"></path> <path d="M303.188 86.7256H314.815V104.314H315.101C322.014 93.3247 332.794 85.0269 350.253 85.0269H352.284L351.099 95.8598C351.099 95.8598 348.001 95.7161 347.649 95.7161C333.159 95.7161 321.702 103.831 314.802 117.931V175.937H303.175L303.188 86.7256Z" fill="white"></path> <path d="M369.779 86.7256H381.405V99.4011C388.488 91.7958 397.744 85.0269 411.063 85.0269C431.451 85.0269 447.621 100.081 447.621 131.207C447.621 162.334 431.282 177.375 410.048 177.375C398.591 177.375 389.321 171.795 381.405 163.68V209.678H369.779V86.7256ZM435.995 131.377C435.995 106.68 423.861 95.0104 409.045 95.0104C398.083 95.0104 389.829 100.76 381.405 109.724V153.017C390.128 162.36 398.721 167.587 409.006 167.587C424.629 167.587 435.956 156.637 435.956 131.443L435.995 131.377Z" fill="white"></path> </svg> 